STARTFONT 2.1
FONT -FontForge-Roboto-Book-R-Normal--10-100-75-75-P-52-ISO10646-1
SIZE 10 75 75
FONTBOUNDINGBOX 9 10 0 -2
COMMENT "Generated by fontforge, http://fontforge.sourceforge.net"
COMMENT "Copyright 2011 Google Inc. All Rights Reserved."
STARTPROPERTIES 39
FOUNDRY "FontForge"
FAMILY_NAME "Roboto"
WEIGHT_NAME "Book"
SLANT "R"
SETWIDTH_NAME "Normal"
ADD_STYLE_NAME ""
PIXEL_SIZE 10
POINT_SIZE 100
RESOLUTION_X 75
RESOLUTION_Y 75
SPACING "P"
AVERAGE_WIDTH 52
CHARSET_REGISTRY "ISO10646"
CHARSET_ENCODING "1"
FONTNAME_REGISTRY ""
CHARSET_COLLECTIONS "ISO10646-1"
FONT_NAME "Roboto-Regular"
FACE_NAME "Roboto"
COPYRIGHT "Copyright 2011 Google Inc. All Rights Reserved."
FONT_VERSION "2.137; 2017"
FONT_ASCENT 8
FONT_DESCENT 2
UNDERLINE_POSITION -1
UNDERLINE_THICKNESS 1
X_HEIGHT 4
CAP_HEIGHT 6
RAW_ASCENT 750
RAW_DESCENT 250
RELATIVE_WEIGHT 40
RELATIVE_SETWIDTH 50
SUPERSCRIPT_X 0
SUPERSCRIPT_Y 4
SUPERSCRIPT_SIZE 6
SUBSCRIPT_X 0
SUBSCRIPT_Y 1
SUBSCRIPT_SIZE 6
FIGURE_WIDTH 6
AVG_LOWERCASE_WIDTH 50
AVG_UPPERCASE_WIDTH 63
ENDPROPERTIES
CHARS 96
STARTCHAR exclam
ENCODING 33
SWIDTH 257 0
DWIDTH 3 0
BBX 1 7 1 0
BITMAP
80
80
80
80
80
00
80
ENDCHAR
STARTCHAR quotedbl
ENCODING 34
SWIDTH 319 0
DWIDTH 3 0
BBX 2 3 1 5
BITMAP
C0
C0
C0
ENDCHAR
STARTCHAR numbersign
ENCODING 35
SWIDTH 615 0
DWIDTH 6 0
BBX 5 7 1 0
BITMAP
50
50
F8
50
F8
A0
A0
ENDCHAR
STARTCHAR dollar
ENCODING 36
SWIDTH 561 0
DWIDTH 6 0
BBX 4 9 1 -1
BITMAP
40
E0
90
80
60
10
90
E0
40
ENDCHAR
STARTCHAR percent
ENCODING 37
SWIDTH 732 0
DWIDTH 7 0
BBX 6 7 1 0
BITMAP
C0
D8
D0
20
5C
54
1C
ENDCHAR
STARTCHAR ampersand
ENCODING 38
SWIDTH 621 0
DWIDTH 6 0
BBX 6 7 0 0
BITMAP
70
48
50
60
54
C8
74
ENDCHAR
STARTCHAR quotesingle
ENCODING 39
SWIDTH 174 0
DWIDTH 2 0
BBX 1 2 0 6
BITMAP
80
80
ENDCHAR
STARTCHAR parenleft
ENCODING 40
SWIDTH 341 0
DWIDTH 3 0
BBX 2 10 1 -2
BITMAP
40
80
80
80
80
80
80
80
80
40
ENDCHAR
STARTCHAR parenright
ENCODING 41
SWIDTH 347 0
DWIDTH 3 0
BBX 3 10 0 -2
BITMAP
80
40
40
20
20
20
20
40
40
80
ENDCHAR
STARTCHAR asterisk
ENCODING 42
SWIDTH 430 0
DWIDTH 4 0
BBX 4 4 0 3
BITMAP
20
D0
20
70
ENDCHAR
STARTCHAR plus
ENCODING 43
SWIDTH 566 0
DWIDTH 6 0
BBX 5 5 0 1
BITMAP
20
20
F8
20
20
ENDCHAR
STARTCHAR comma
ENCODING 44
SWIDTH 196 0
DWIDTH 2 0
BBX 2 2 0 -1
BITMAP
40
80
ENDCHAR
STARTCHAR hyphen
ENCODING 45
SWIDTH 275 0
DWIDTH 3 0
BBX 3 1 0 2
BITMAP
E0
ENDCHAR
STARTCHAR period
ENCODING 46
SWIDTH 263 0
DWIDTH 3 0
BBX 1 1 1 0
BITMAP
80
ENDCHAR
STARTCHAR slash
ENCODING 47
SWIDTH 412 0
DWIDTH 4 0
BBX 4 8 0 -1
BITMAP
10
20
20
20
40
40
80
80
ENDCHAR
STARTCHAR zero
ENCODING 48
SWIDTH 561 0
DWIDTH 6 0
BBX 4 7 1 0
BITMAP
E0
90
90
90
90
90
E0
ENDCHAR
STARTCHAR one
ENCODING 49
SWIDTH 561 0
DWIDTH 6 0
BBX 3 7 1 0
BITMAP
60
A0
20
20
20
20
20
ENDCHAR
STARTCHAR two
ENCODING 50
SWIDTH 561 0
DWIDTH 6 0
BBX 5 7 0 0
BITMAP
70
48
88
10
20
40
78
ENDCHAR
STARTCHAR three
ENCODING 51
SWIDTH 561 0
DWIDTH 6 0
BBX 5 7 0 0
BITMAP
70
48
08
30
08
C8
70
ENDCHAR
STARTCHAR four
ENCODING 52
SWIDTH 561 0
DWIDTH 6 0
BBX 5 7 0 0
BITMAP
10
10
30
50
50
F8
10
ENDCHAR
STARTCHAR five
ENCODING 53
SWIDTH 561 0
DWIDTH 6 0
BBX 4 7 1 0
BITMAP
F0
80
E0
10
10
90
E0
ENDCHAR
STARTCHAR six
ENCODING 54
SWIDTH 561 0
DWIDTH 6 0
BBX 4 7 1 0
BITMAP
60
80
E0
90
90
90
60
ENDCHAR
STARTCHAR seven
ENCODING 55
SWIDTH 561 0
DWIDTH 6 0
BBX 5 7 0 0
BITMAP
F8
08
10
10
20
20
40
ENDCHAR
STARTCHAR eight
ENCODING 56
SWIDTH 561 0
DWIDTH 6 0
BBX 4 7 1 0
BITMAP
E0
90
90
60
90
90
E0
ENDCHAR
STARTCHAR nine
ENCODING 57
SWIDTH 561 0
DWIDTH 6 0
BBX 5 7 0 0
BITMAP
70
48
88
48
78
18
70
ENDCHAR
STARTCHAR colon
ENCODING 58
SWIDTH 242 0
DWIDTH 2 0
BBX 1 5 1 0
BITMAP
80
00
00
00
80
ENDCHAR
STARTCHAR semicolon
ENCODING 59
SWIDTH 211 0
DWIDTH 2 0
BBX 2 6 0 -1
BITMAP
40
00
00
00
40
80
ENDCHAR
STARTCHAR less
ENCODING 60
SWIDTH 508 0
DWIDTH 5 0
BBX 4 4 0 1
BITMAP
10
60
E0
10
ENDCHAR
STARTCHAR equal
ENCODING 61
SWIDTH 548 0
DWIDTH 5 0
BBX 4 3 1 2
BITMAP
F0
00
F0
ENDCHAR
STARTCHAR greater
ENCODING 62
SWIDTH 522 0
DWIDTH 5 0
BBX 4 4 1 1
BITMAP
80
60
70
80
ENDCHAR
STARTCHAR question
ENCODING 63
SWIDTH 472 0
DWIDTH 5 0
BBX 4 7 0 0
BITMAP
70
90
10
20
20
00
20
ENDCHAR
STARTCHAR at
ENCODING 64
SWIDTH 897 0
DWIDTH 9 0
BBX 7 9 1 -2
BITMAP
3C
42
9A
AA
AA
AA
BE
C0
78
ENDCHAR
STARTCHAR A
ENCODING 65
SWIDTH 652 0
DWIDTH 7 0
BBX 7 7 0 0
BITMAP
10
30
28
28
7C
44
C6
ENDCHAR
STARTCHAR B
ENCODING 66
SWIDTH 622 0
DWIDTH 6 0
BBX 5 7 1 0
BITMAP
F0
90
90
F0
88
88
F0
ENDCHAR
STARTCHAR C
ENCODING 67
SWIDTH 650 0
DWIDTH 7 0
BBX 5 7 1 0
BITMAP
70
88
80
80
80
88
70
ENDCHAR
STARTCHAR D
ENCODING 68
SWIDTH 655 0
DWIDTH 7 0
BBX 5 7 1 0
BITMAP
F0
98
88
88
88
98
F0
ENDCHAR
STARTCHAR E
ENCODING 69
SWIDTH 568 0
DWIDTH 6 0
BBX 4 7 1 0
BITMAP
F0
80
80
F0
80
80
F0
ENDCHAR
STARTCHAR F
ENCODING 70
SWIDTH 552 0
DWIDTH 6 0
BBX 4 7 1 0
BITMAP
F0
80
80
F0
80
80
80
ENDCHAR
STARTCHAR G
ENCODING 71
SWIDTH 681 0
DWIDTH 7 0
BBX 5 7 1 0
BITMAP
70
88
80
B8
88
88
70
ENDCHAR
STARTCHAR H
ENCODING 72
SWIDTH 712 0
DWIDTH 7 0
BBX 5 7 1 0
BITMAP
88
88
88
F8
88
88
88
ENDCHAR
STARTCHAR I
ENCODING 73
SWIDTH 271 0
DWIDTH 3 0
BBX 1 7 1 0
BITMAP
80
80
80
80
80
80
80
ENDCHAR
STARTCHAR J
ENCODING 74
SWIDTH 551 0
DWIDTH 6 0
BBX 5 7 0 0
BITMAP
08
08
08
08
08
88
70
ENDCHAR
STARTCHAR K
ENCODING 75
SWIDTH 626 0
DWIDTH 6 0
BBX 5 7 1 0
BITMAP
98
90
A0
E0
A0
90
88
ENDCHAR
STARTCHAR L
ENCODING 76
SWIDTH 538 0
DWIDTH 5 0
BBX 4 7 1 0
BITMAP
80
80
80
80
80
80
F0
ENDCHAR
STARTCHAR M
ENCODING 77
SWIDTH 873 0
DWIDTH 9 0
BBX 7 7 1 0
BITMAP
86
C6
C6
CA
AA
B2
92
ENDCHAR
STARTCHAR N
ENCODING 78
SWIDTH 712 0
DWIDTH 7 0
BBX 5 7 1 0
BITMAP
88
C8
C8
A8
98
98
88
ENDCHAR
STARTCHAR O
ENCODING 79
SWIDTH 687 0
DWIDTH 7 0
BBX 5 7 1 0
BITMAP
70
88
88
88
88
88
70
ENDCHAR
STARTCHAR P
ENCODING 80
SWIDTH 630 0
DWIDTH 6 0
BBX 5 7 1 0
BITMAP
F0
88
88
F0
80
80
80
ENDCHAR
STARTCHAR Q
ENCODING 81
SWIDTH 687 0
DWIDTH 7 0
BBX 5 8 1 -1
BITMAP
70
88
88
88
88
88
70
08
ENDCHAR
STARTCHAR R
ENCODING 82
SWIDTH 615 0
DWIDTH 6 0
BBX 5 7 1 0
BITMAP
F0
88
88
F0
90
90
88
ENDCHAR
STARTCHAR S
ENCODING 83
SWIDTH 593 0
DWIDTH 6 0
BBX 6 7 0 0
BITMAP
78
48
44
38
0C
C4
78
ENDCHAR
STARTCHAR T
ENCODING 84
SWIDTH 596 0
DWIDTH 6 0
BBX 6 7 0 0
BITMAP
FC
20
20
20
20
20
20
ENDCHAR
STARTCHAR U
ENCODING 85
SWIDTH 648 0
DWIDTH 6 0
BBX 6 7 0 0
BITMAP
84
84
84
84
84
48
78
ENDCHAR
STARTCHAR V
ENCODING 86
SWIDTH 636 0
DWIDTH 6 0
BBX 6 7 0 0
BITMAP
84
48
48
48
30
30
30
ENDCHAR
STARTCHAR W
ENCODING 87
SWIDTH 887 0
DWIDTH 9 0
BBX 9 7 0 0
BITMAP
8880
5900
5500
5500
5500
6200
2200
ENDCHAR
STARTCHAR X
ENCODING 88
SWIDTH 626 0
DWIDTH 6 0
BBX 6 7 0 0
BITMAP
C4
48
30
10
30
48
C4
ENDCHAR
STARTCHAR Y
ENCODING 89
SWIDTH 600 0
DWIDTH 6 0
BBX 6 7 0 0
BITMAP
84
48
48
30
20
20
20
ENDCHAR
STARTCHAR Z
ENCODING 90
SWIDTH 598 0
DWIDTH 6 0
BBX 6 7 0 0
BITMAP
F8
08
10
20
20
40
FC
ENDCHAR
STARTCHAR bracketleft
ENCODING 91
SWIDTH 265 0
DWIDTH 3 0
BBX 2 10 1 -2
BITMAP
C0
80
80
80
80
80
80
80
80
C0
ENDCHAR
STARTCHAR backslash
ENCODING 92
SWIDTH 410 0
DWIDTH 4 0
BBX 4 8 0 -1
BITMAP
80
40
40
40
20
20
20
10
ENDCHAR
STARTCHAR bracketright
ENCODING 93
SWIDTH 265 0
DWIDTH 3 0
BBX 2 10 0 -2
BITMAP
C0
40
40
40
40
40
40
40
40
C0
ENDCHAR
STARTCHAR asciicircum
ENCODING 94
SWIDTH 417 0
DWIDTH 4 0
BBX 4 3 0 4
BITMAP
60
60
90
ENDCHAR
STARTCHAR underscore
ENCODING 95
SWIDTH 451 0
DWIDTH 5 0
BBX 5 1 0 -1
BITMAP
F8
ENDCHAR
STARTCHAR grave
ENCODING 96
SWIDTH 309 0
DWIDTH 3 0
BBX 2 2 0 6
BITMAP
C0
40
ENDCHAR
STARTCHAR a
ENCODING 97
SWIDTH 543 0
DWIDTH 5 0
BBX 5 5 0 0
BITMAP
70
90
70
90
68
ENDCHAR
STARTCHAR b
ENCODING 98
SWIDTH 561 0
DWIDTH 6 0
BBX 4 8 1 0
BITMAP
80
80
80
F0
90
90
90
F0
ENDCHAR
STARTCHAR c
ENCODING 99
SWIDTH 523 0
DWIDTH 5 0
BBX 5 5 0 0
BITMAP
70
C8
80
88
70
ENDCHAR
STARTCHAR d
ENCODING 100
SWIDTH 563 0
DWIDTH 6 0
BBX 4 8 1 0
BITMAP
10
10
10
F0
90
90
90
F0
ENDCHAR
STARTCHAR e
ENCODING 101
SWIDTH 529 0
DWIDTH 5 0
BBX 5 5 0 0
BITMAP
70
88
F8
80
78
ENDCHAR
STARTCHAR f
ENCODING 102
SWIDTH 347 0
DWIDTH 3 0
BBX 3 8 0 0
BITMAP
60
40
40
E0
40
40
40
40
ENDCHAR
STARTCHAR g
ENCODING 103
SWIDTH 561 0
DWIDTH 6 0
BBX 4 7 1 -2
BITMAP
F0
90
90
90
F0
10
E0
ENDCHAR
STARTCHAR h
ENCODING 104
SWIDTH 550 0
DWIDTH 6 0
BBX 4 8 1 0
BITMAP
80
80
80
F0
90
90
90
90
ENDCHAR
STARTCHAR i
ENCODING 105
SWIDTH 242 0
DWIDTH 2 0
BBX 1 7 1 0
BITMAP
80
00
80
80
80
80
80
ENDCHAR
STARTCHAR j
ENCODING 106
SWIDTH 238 0
DWIDTH 2 0
BBX 2 9 0 -2
BITMAP
C0
00
80
80
80
80
80
80
80
ENDCHAR
STARTCHAR k
ENCODING 107
SWIDTH 506 0
DWIDTH 5 0
BBX 4 8 1 0
BITMAP
80
80
80
B0
C0
C0
A0
90
ENDCHAR
STARTCHAR l
ENCODING 108
SWIDTH 242 0
DWIDTH 2 0
BBX 1 8 1 0
BITMAP
80
80
80
80
80
80
80
80
ENDCHAR
STARTCHAR m
ENCODING 109
SWIDTH 876 0
DWIDTH 9 0
BBX 7 5 1 0
BITMAP
FE
92
92
92
92
ENDCHAR
STARTCHAR n
ENCODING 110
SWIDTH 551 0
DWIDTH 6 0
BBX 4 5 1 0
BITMAP
F0
90
90
90
90
ENDCHAR
STARTCHAR o
ENCODING 111
SWIDTH 570 0
DWIDTH 6 0
BBX 4 5 1 0
BITMAP
F0
90
90
90
F0
ENDCHAR
STARTCHAR p
ENCODING 112
SWIDTH 561 0
DWIDTH 6 0
BBX 4 7 1 -2
BITMAP
F0
90
90
90
F0
80
80
ENDCHAR
STARTCHAR q
ENCODING 113
SWIDTH 568 0
DWIDTH 6 0
BBX 4 7 1 -2
BITMAP
F0
90
90
90
F0
10
10
ENDCHAR
STARTCHAR r
ENCODING 114
SWIDTH 338 0
DWIDTH 3 0
BBX 3 5 0 0
BITMAP
A0
C0
80
80
80
ENDCHAR
STARTCHAR s
ENCODING 115
SWIDTH 515 0
DWIDTH 5 0
BBX 5 5 0 0
BITMAP
70
48
70
88
70
ENDCHAR
STARTCHAR t
ENCODING 116
SWIDTH 326 0
DWIDTH 3 0
BBX 3 6 0 0
BITMAP
40
E0
40
40
40
60
ENDCHAR
STARTCHAR u
ENCODING 117
SWIDTH 551 0
DWIDTH 6 0
BBX 4 5 1 0
BITMAP
90
90
90
90
F0
ENDCHAR
STARTCHAR v
ENCODING 118
SWIDTH 484 0
DWIDTH 5 0
BBX 5 5 0 0
BITMAP
88
50
50
60
20
ENDCHAR
STARTCHAR w
ENCODING 119
SWIDTH 751 0
DWIDTH 8 0
BBX 8 5 0 0
BITMAP
9B
5A
5A
24
24
ENDCHAR
STARTCHAR x
ENCODING 120
SWIDTH 495 0
DWIDTH 5 0
BBX 5 5 0 0
BITMAP
D8
50
20
50
D8
ENDCHAR
STARTCHAR y
ENCODING 121
SWIDTH 473 0
DWIDTH 5 0
BBX 5 7 0 -2
BITMAP
88
50
50
60
20
20
40
ENDCHAR
STARTCHAR z
ENCODING 122
SWIDTH 495 0
DWIDTH 5 0
BBX 5 5 0 0
BITMAP
F0
10
20
40
F8
ENDCHAR
STARTCHAR braceleft
ENCODING 123
SWIDTH 338 0
DWIDTH 3 0
BBX 3 10 0 -2
BITMAP
20
40
40
40
80
40
40
40
40
20
ENDCHAR
STARTCHAR bar
ENCODING 124
SWIDTH 243 0
DWIDTH 2 0
BBX 1 8 1 -1
BITMAP
80
80
80
80
80
80
80
80
ENDCHAR
STARTCHAR braceright
ENCODING 125
SWIDTH 338 0
DWIDTH 3 0
BBX 3 10 0 -2
BITMAP
80
40
40
40
20
40
40
40
40
80
ENDCHAR
STARTCHAR asciitilde
ENCODING 126
SWIDTH 680 0
DWIDTH 7 0
BBX 5 2 1 2
BITMAP
E8
B8
ENDCHAR
STARTCHAR copyright
ENCODING 169
SWIDTH 785 0
DWIDTH 8 0
BBX 6 7 1 0
BITMAP
78
84
B4
CC
BC
84
78
ENDCHAR
STARTCHAR degree
ENCODING 176
SWIDTH 373 0
DWIDTH 4 0
BBX 2 3 1 4
BITMAP
C0
C0
C0
ENDCHAR
ENDFONT
